<svg width="32" height="32" viewBox="0 0 32 32" fill="none" xmlns="http://www.w3.org/2000/svg">
<rect width="32" height="32" fill="black"/>
<path d="M9.48 9.6C10.2267 9.6 10.8 9.68 11.2 9.84C11.6 10 11.9467 10.1733 12.24 10.36C12.4 10.4533 12.5267 10.5267 12.62 10.58C12.7267 10.62 12.8267 10.64 12.92 10.64C13.0533 10.64 13.1467 10.5667 13.2 10.42C13.2667 10.2733 13.32 10.0533 13.36 9.76H13.82C13.8067 10.0133 13.7867 10.3067 13.76 10.64C13.7467 10.9733 13.7333 11.42 13.72 11.98C13.72 12.5267 13.72 13.2533 13.72 14.16H13.26C13.22 13.48 13.0667 12.8267 12.8 12.2C12.5467 11.5733 12.18 11.06 11.7 10.66C11.2333 10.2467 10.6333 10.04 9.9 10.04C9.24667 10.04 8.7 10.2333 8.26 10.62C7.83333 11.0067 7.62 11.5267 7.62 12.18C7.62 12.74 7.76 13.2133 8.04 13.6C8.32 13.9733 8.71333 14.34 9.22 14.7C9.74 15.0467 10.3533 15.4467 11.06 15.9C11.7133 16.3267 12.3 16.7533 12.82 17.18C13.34 17.5933 13.7467 18.0533 14.04 18.56C14.3467 19.0667 14.5 19.6867 14.5 20.42C14.5 21.2867 14.2867 22.0067 13.86 22.58C13.4333 23.1533 12.86 23.58 12.14 23.86C11.42 24.14 10.6333 24.28 9.78 24.28C8.99333 24.28 8.36667 24.2 7.9 24.04C7.44667 23.88 7.05333 23.7133 6.72 23.54C6.42667 23.3533 6.2 23.26 6.04 23.26C5.90667 23.26 5.80667 23.3333 5.74 23.48C5.68667 23.6267 5.64 23.8467 5.6 24.14H5.14C5.16667 23.8333 5.18 23.4733 5.18 23.06C5.19333 22.6467 5.2 22.1133 5.2 21.46C5.21333 20.7933 5.22 19.9533 5.22 18.94H5.68C5.73333 19.7933 5.88 20.5933 6.12 21.34C6.37333 22.0733 6.75333 22.6667 7.26 23.12C7.78 23.5733 8.46667 23.8 9.32 23.8C9.78667 23.8 10.2067 23.72 10.58 23.56C10.9667 23.3867 11.2733 23.1267 11.5 22.78C11.7267 22.42 11.84 21.9667 11.84 21.42C11.84 20.8733 11.7133 20.3933 11.46 19.98C11.2067 19.5667 10.8533 19.18 10.4 18.82C9.94667 18.46 9.41333 18.0933 8.8 17.72C8.17333 17.32 7.58667 16.9133 7.04 16.5C6.49333 16.0867 6.05333 15.62 5.72 15.1C5.4 14.5667 5.24 13.9267 5.24 13.18C5.24 12.3533 5.44 11.68 5.84 11.16C6.24 10.6267 6.76 10.2333 7.4 9.98C8.05333 9.72667 8.74667 9.6 9.48 9.6ZM27.9067 9.84C27.8534 10.4533 27.8134 11.0533 27.7867 11.64C27.7734 12.2133 27.7667 12.6533 27.7667 12.96C27.7667 13.2667 27.7734 13.5533 27.7867 13.82C27.8001 14.0867 27.8134 14.32 27.8267 14.52H27.3667C27.1801 13.4533 26.9534 12.62 26.6867 12.02C26.4201 11.4067 26.0667 10.9667 25.6267 10.7C25.2001 10.4333 24.6334 10.3 23.9267 10.3H23.2867V21.7C23.2867 22.2467 23.3334 22.6533 23.4267 22.92C23.5334 23.1867 23.7401 23.3667 24.0467 23.46C24.3534 23.54 24.8001 23.5867 25.3867 23.6V24C24.9867 23.9733 24.4667 23.96 23.8267 23.96C23.1867 23.9467 22.5334 23.94 21.8667 23.94C21.1734 23.94 20.5201 23.9467 19.9067 23.96C19.3067 23.96 18.8201 23.9733 18.4467 24V23.6C19.0201 23.5867 19.4601 23.54 19.7667 23.46C20.0734 23.3667 20.2801 23.1867 20.3867 22.92C20.4934 22.6533 20.5467 22.2467 20.5467 21.7V10.3H19.8867C19.1934 10.3 18.6267 10.4333 18.1867 10.7C17.7467 10.9667 17.3934 11.4067 17.1267 12.02C16.8601 12.62 16.6401 13.4533 16.4667 14.52H16.0067C16.0334 14.32 16.0467 14.0867 16.0467 13.82C16.0601 13.5533 16.0667 13.2667 16.0667 12.96C16.0667 12.6533 16.0534 12.2133 16.0267 11.64C16.0134 11.0533 15.9801 10.4533 15.9267 9.84C16.5134 9.85333 17.1601 9.86667 17.8667 9.88C18.5734 9.89333 19.2801 9.9 19.9867 9.9C20.6934 9.9 21.3401 9.9 21.9267 9.9C22.5001 9.9 23.1401 9.9 23.8467 9.9C24.5534 9.9 25.2601 9.89333 25.9667 9.88C26.6734 9.86667 27.3201 9.85333 27.9067 9.84Z" fill="white"/>
</svg>
